<svg xmlns="http://www.w3.org/2000/svg" width="100" height="100" viewBox="0 0 100 100">
    <path fill="none" stroke="#cad3f5" stroke-linecap="round" stroke-linejoin="round" stroke-width="5" d="M44.714 27.878v-2.974c0-7.56-7.295-7.56-7.295-7.56h-26.19c-8.729 0-8.729 9.047-8.729 9.047v48.21c0 7.436 7.773 8.056 7.773 8.056H40m54.627-37.656 1.939-7.332c1.833-8.827-7.31-9.543-7.31-9.543h-65.23s-4.886 1.207-6.747 5.588c-1.86 4.382-5.75 15.512-5.75 15.512" paint-order="fill markers stroke"/>
    <path fill="none" stroke="#a6da95" stroke-linecap="round" stroke-linejoin="round" stroke-width="5" d="M50.246 52.992v38.455a5.42 5.493 0 0 0 7.451 5.053L90.891 77a5.42 5.493 0 0 0 0-9.614L57.697 47.884a5.42 5.493 0 0 0-7.451 4.806"/>
</svg>
