<svg xmlns="http://www.w3.org/2000/svg" width="100" height="100" viewBox="0 0 100 100">
    <path fill="none" stroke="#cad3f5" stroke-linecap="round" stroke-linejoin="round" stroke-width="5" d="M24.023 28.126H78.31s9.207.248 9.207 9.543V45M40 82.656H10.272S2.5 82.036 2.5 74.601V26.39s0-9.047 8.729-9.047h26.186s7.294 0 7.294 7.56v2.974" paint-order="fill markers stroke"/>
    <path fill="none" stroke="#8087a2" stroke-linecap="round" stroke-linejoin="round" stroke-width="5" d="M63.676 91.024c-10.168 3.31-10.168-5.911-14.188-7.094m28.375 11.823v-8.276c0-2.364.237-3.31-1.182-4.729 6.621-.71 13.005-3.31 13.005-14.188a10.877 10.877 0 0 0-3.074-7.566 9.931 9.931 0 0 0-.236-7.567s-2.601-.71-8.276 3.074a29.084 29.084 0 0 0-14.66 0c-5.676-3.783-8.277-3.074-8.277-3.074a9.931 9.931 0 0 0-.236 7.567 10.877 10.877 0 0 0-3.074 7.566c0 10.878 6.384 13.479 13.005 14.188-1.419 1.419-1.419 2.837-1.182 4.73v8.275"/>
</svg>
