<svg xmlns="http://www.w3.org/2000/svg" width="100" height="100" viewBox="0 0 100 100">
    <path fill="none" stroke="#cad3f5" stroke-linecap="round" stroke-linejoin="round" stroke-width="5" d="M24.023 28.126H78.31s9.207.248 9.207 9.543V45M40 82.656H10.272S2.5 82.036 2.5 74.601V26.39s0-9.047 8.729-9.047h26.186s7.294 0 7.294 7.56v2.974" paint-order="fill markers stroke"/>
    <rect width="32.357" height="32.357" x="59.036" y="61.216" fill="none" stroke="#ee99a0" stroke-width="5" rx="5.393"/>
    <path fill="none" stroke="#ee99a0" stroke-width="5" d="M80.608 61.216v-5.393a5.393 5.393 0 0 0-5.393-5.393H53.644a5.393 5.393 0 0 0-5.393 5.393v21.571a5.393 5.393 0 0 0 5.393 5.393h5.392"/>
</svg>
