<svg xmlns="http://www.w3.org/2000/svg" width="100" height="100" viewBox="-5 -5 110 110">
    <g fill="none" stroke="#eed49f" stroke-linecap="round" stroke-linejoin="round" stroke-width="5.01676" paint-order="fill markers stroke">
        <path d="M22 52.817a28 28 0 0 1 28-28 28 28 0 0 1 28 28" transform="matrix(.99666 0 0 .99666 .16 -.888)"/>
        <path d="M22.004 53.178v38.515" transform="matrix(.99666 0 0 .99666 .16 -.888)"/>
        <path d="M77.996 53.178v38.515" transform="matrix(.99666 0 0 .99666 .16 -.888)"/>
    </g>
    <g fill="none" stroke-linecap="round" stroke-linejoin="round" stroke-width="3.02212" paint-order="fill markers stroke">
        <path stroke="#f4dbd6" stroke-width="4.4998" d="m8.167 92.523 17.187-.028m49.596.008h16.877" transform="matrix(1.66013 0 0 1.64883 -33.013 -33.857) matrix(.66932 0 0 .67391 16.538 17.146)"/>
        <path stroke="#f4dbd6" d="M22 52.817A28 28 0 0 1 42.282 25.9" transform="matrix(1.66013 0 0 1.64883 -33.013 -33.857)"/>
        <path stroke="#f4dbd6" d="M-78.008 52.817A28 28 0 0 1-57.725 25.9" transform="matrix(1.66013 0 0 1.64883 -33.013 -33.857) scale(-1 1)"/>
        <path stroke="#f4dbd6" d="M22.004 53.178v26.286M77.996 53.178v26.286" transform="matrix(1.66013 0 0 1.64883 -33.013 -33.857)"/>
        <path stroke="#eed49f" d="M33.309 79.464H43.69m12.844 0H66.72" transform="matrix(1.66013 0 0 1.64883 -33.013 -33.857)"/>
        <path stroke="#f4dbd6" d="M23.44 54.29h8.303m36.437 0h8.392" transform="matrix(1.66013 0 0 1.64883 -33.013 -33.857)"/>
    </g>
    <g fill="none" stroke="#eed49f" stroke-linecap="round" stroke-linejoin="round" stroke-width="13.2654" paint-order="fill markers stroke">
        <path d="M22 52.817a28 28 0 0 1 28-28 28 28 0 0 1 28 28" transform="translate(31.148 31.406) scale(.37692)"/>
        <path d="M22.004 53.178v121.286M77.996 53.178v121.286" transform="translate(31.148 31.406) scale(.37692)"/>
    </g>
    <g fill="none" stroke="#eed49f" stroke-linecap="round" stroke-linejoin="round" stroke-width="5.01676" paint-order="fill markers stroke">
        <path d="M36.779 5.41a37.752 27.27 0 0 1 26.442 0" transform="matrix(.99666 0 0 .99666 .16 -.888)"/>
        <path d="M22.004 53.178v45.204M77.996 53.178v45.204" transform="matrix(.99666 0 0 .99666 .16 -.888)"/>
    </g>
    <path fill="none" stroke="#eed49f" stroke-linecap="round" stroke-linejoin="round" stroke-width="5" d="M44.07 23.546 36.397 4.76M55.933 23.546 63.606 4.76" paint-order="fill markers stroke"/>
</svg>
