<svg xmlns="http://www.w3.org/2000/svg" width="100" height="100" viewBox="0 0 100 100">
    <path fill="none" stroke="#cdd6f4" stroke-linecap="round" stroke-linejoin="round" stroke-width="5" d="M24.023 28.126H78.31s9.207.248 9.207 9.543V45M40 82.656H10.272S2.5 82.036 2.5 74.601V26.39s0-9.047 8.729-9.047h26.186s7.294 0 7.294 7.56v2.974" paint-order="fill markers stroke"/>
    <path fill="none" stroke="#74c7ec" stroke-linecap="round" stroke-linejoin="round" stroke-width="5" d="M48.483 71.954h43.86M72.82 48.127c6.909 15.718 7.712 28.383 0 44.808m-4.66-44.808c-6.908 15.718-7.711 28.383 0 44.808m25.605-22.167A23.234 23.234 0 0 1 70.53 94.002a23.234 23.234 0 0 1-23.234-23.234 23.234 23.234 0 0 1 23.234-23.234 23.234 23.234 0 0 1 23.234 23.234Z" paint-order="fill markers stroke"/>
</svg>
