<svg xmlns="http://www.w3.org/2000/svg" width="100" height="100" viewBox="0 0 100 100">
    <path fill="none" stroke="#cdd6f4" stroke-linecap="round" stroke-linejoin="round" stroke-width="5" d="M24.023 28.126H78.31s9.207.248 9.207 9.543V45M40 82.656H10.272S2.5 82.036 2.5 74.601V26.39s0-9.047 8.729-9.047h26.186s7.294 0 7.294 7.56v2.974" paint-order="fill markers stroke"/>
    <path fill="none" stroke="#89b4fa" stroke-linecap="round" stroke-linejoin="round" stroke-width="5" d="M58.198 81.9h28.627M58.741 93.961h28.767V53.98h-31.18c-.903 0-1.932.219-2.747.695-.332.194-.566.525-.794.833-.314.426-.613.883-.774 1.386-.235.73-.257 1.47-.257 2.283V87.15m6.52 6.82a6.535 6.036 0 0 1-5.659-3.017 6.535 6.036 0 0 1 0-6.037 6.535 6.036 0 0 1 5.66-3.018" paint-order="fill markers stroke"/>
</svg>
