<svg xmlns="http://www.w3.org/2000/svg" width="100" height="100" viewBox="0 0 100 100">
    <path fill="none" stroke="#cdd6f4" stroke-linecap="round" stroke-linejoin="round" stroke-width="5" d="M24.023 28.126H78.31s9.207.248 9.207 9.543V45M40 82.656H10.272S2.5 82.036 2.5 74.601V26.39s0-9.047 8.729-9.047h26.186s7.294 0 7.294 7.56v2.974" paint-order="fill markers stroke"/>
    <path fill="#f9e2af" stroke="#f9e2af" stroke-width="1.35" d="M86.283 80.537a5.869 5.869 0 0 0-3.04.867l-4.698-4.713a9.122 9.122 0 0 0 0-10.552l4.698-4.713a5.869 5.869 0 0 0 3.04.866 6.082 6.082 0 1 0-6.081-6.081 5.869 5.869 0 0 0 .866 3.04l-4.713 4.699a9.122 9.122 0 0 0-10.551 0l-4.713-4.698a5.869 5.869 0 0 0 .866-3.041 6.082 6.082 0 1 0-6.081 6.081 5.869 5.869 0 0 0 3.04-.866l4.698 4.713a9.122 9.122 0 0 0 0 10.552l-4.698 4.713a5.869 5.869 0 0 0-3.04-.867 6.082 6.082 0 1 0 6.081 6.082 5.869 5.869 0 0 0-.866-3.041l4.713-4.698a9.122 9.122 0 0 0 10.551 0l4.713 4.698a5.869 5.869 0 0 0-.866 3.04 6.082 6.082 0 1 0 6.081-6.08zm0-27.367a3.04 3.04 0 1 1-3.04 3.041 3.04 3.04 0 0 1 3.04-3.04zm-33.448 3.041a3.04 3.04 0 1 1 3.04 3.04 3.04 3.04 0 0 1-3.04-3.04zm3.04 33.448a3.04 3.04 0 1 1 3.041-3.04 3.04 3.04 0 0 1-3.04 3.04zM71.08 77.496a6.082 6.082 0 1 1 6.081-6.081 6.082 6.082 0 0 1-6.081 6.081zM86.283 89.66a3.04 3.04 0 1 1 3.041-3.04 3.04 3.04 0 0 1-3.04 3.04z"/>
</svg>
