<svg xmlns="http://www.w3.org/2000/svg" width="100" height="100" viewBox="-5 -5 110 110">
    <path fill="none" stroke="#7f849c" stroke-width="5" d="m52.747 3.446 36.197 20.898a5.49 5.49 0 0 1 2.747 4.757V70.9a5.49 5.49 0 0 1-2.747 4.758L52.747 96.554a5.49 5.49 0 0 1-5.494 0L11.056 75.656A5.491 5.491 0 0 1 8.309 70.9V29.102a5.493 5.493 0 0 1 2.747-4.758L47.253 3.446a5.488 5.488 0 0 1 5.494 0z"/>
    <path fill="none" stroke="#cdd6f4" stroke-linecap="round" stroke-linejoin="round" stroke-width="5" d="M34.238 50.296h31.228m.592-23.976v47.36M33.942 26.32v47.36"/>
</svg>
