<svg xmlns="http://www.w3.org/2000/svg" width="100" height="100" viewBox="-5 -5 110 110">
    <path fill="none" stroke="#fab387" stroke-linecap="round" stroke-linejoin="round" stroke-width="5" d="M62.644 49.808 20.67 93.496c-4.098 4.266-10.715 4.266-14.814 0v0c-4.094-4.256-4.094-11.163 0-15.42L47.83 34.39"/>
    <path fill="none" stroke="#cdd6f4" stroke-linecap="round" stroke-linejoin="round" stroke-width="5" d="m91.827 48.267-6.173-6.425c-2.962-3.084-4.592-7.196-4.592-11.564v-4.42L67.631 11.774a27.455 28.577 0 0 0-19.455-8.43h-15.16L37.56 7.56a30.516 31.763 0 0 1 10.27 23.745v8.018l9.877 10.28h12.196l11.16 9.817m-5.379 5.818 21.535-22.463"/>
</svg>
