<svg xmlns="http://www.w3.org/2000/svg" width="100" height="100" viewBox="-5 -5 110 110">
    <path fill="none" stroke="#7f849c" stroke-width="5" d="M70.735 73.695v-8.88a8.88 8.88 0 0 1 17.76 0v8.88m-23.68 0h29.599a2.96 2.96 0 0 1 2.96 2.96v17.759a2.96 2.96 0 0 1-2.96 2.96H64.815a2.96 2.96 0 0 1-2.96-2.96v-17.76a2.96 2.96 0 0 1 2.96-2.96z"/>
    <path fill="none" stroke="#f38ba8" stroke-linecap="round" stroke-linejoin="round" stroke-width="5" d="M87.873 47.36V8.889a6.247 6.247 0 0 0-6.262-6.262H8.888a6.247 6.247 0 0 0-6.262 6.262v72.723a6.247 6.247 0 0 0 6.262 6.262h42.723"/>
    <path fill="none" stroke="#cdd6f4" stroke-linecap="round" stroke-linejoin="round" stroke-width="5" d="m57.518 66.732.036-33.751H45.279l-.029 36.848H20.646l.06-49.184 49.148.067-.032 28.895"/>
</svg>
