<svg xmlns="http://www.w3.org/2000/svg" width="100" height="100" viewBox="-5 -5 110 110">
    <path fill="none" stroke="#74c7ec" stroke-linecap="round" stroke-linejoin="round" stroke-width="3.69138" d="M40.234 25.146 10.047 42.561l-30.175-17.434.011-34.85L10.07-27.138 40.245-9.704z" paint-order="fill markers stroke" transform="matrix(1.3545 0 0 1.3545 36.376 39.555)"/>
    <path fill="none" stroke="#74c7ec" stroke-linecap="round" stroke-linejoin="round" stroke-width="5" d="M50 3.47v18.446m0 56.11v17.427" paint-order="fill markers stroke"/>
    <path fill="none" stroke="#74c7ec" stroke-linecap="round" stroke-linejoin="round" stroke-width="5" d="m25.633 64.354-15.205 8.778M74.534 64.354l15.205 8.778" paint-order="fill markers stroke"/>
    <path fill="none" stroke="#89b4fa" stroke-linecap="round" stroke-linejoin="round" stroke-width="6.43461" d="M40.234 25.146 10.047 42.561l-30.175-17.434.011-34.85L10.07-27.138 40.245-9.704z" paint-order="fill markers stroke" transform="matrix(.77705 0 0 .77705 42.184 44.008)"/>
    <path fill="none" stroke="#74c7ec" stroke-linecap="round" stroke-linejoin="round" stroke-width="5" d="m10.5 27.54 39.381 22.737M89.499 27.54 50.118 50.278" paint-order="fill markers stroke"/>
    <path fill="none" stroke="#74c7ec" stroke-linecap="round" stroke-linejoin="round" stroke-width="5" d="M50.04 50.04v30.55" paint-order="fill markers stroke"/>
</svg>
