<svg xmlns="http://www.w3.org/2000/svg" width="100" height="100" viewBox="-5 -5 110 110">
    <path fill="none" stroke="#89b4fa" stroke-linecap="round" stroke-linejoin="round" stroke-width="5" d="M5.303 28.809h28.825" paint-order="fill markers stroke"/>
    <path fill="none" stroke="#89b4fa" stroke-linecap="round" stroke-linejoin="round" stroke-width="5" d="M21.54 15.79A13.009 13.009 0 0 1 34.548 2.78a13.009 13.009 0 0 1 13.009 13.01 13.009 13.009 0 0 1-13.009 13.008" paint-order="fill markers stroke"/>
    <path fill="none" stroke="#89b4fa" stroke-linecap="round" stroke-linejoin="round" stroke-width="5" d="M5.15 50.392h74.665" paint-order="fill markers stroke"/>
    <path fill="none" stroke="#89b4fa" stroke-linecap="round" stroke-linejoin="round" stroke-width="5" d="M64.23 34.98a15.374 15.374 0 0 1 15.373-15.373A15.374 15.374 0 0 1 94.977 34.98a15.374 15.374 0 0 1-15.374 15.373" paint-order="fill markers stroke"/>
    <path fill="none" stroke="#89b4fa" stroke-linecap="round" stroke-linejoin="round" stroke-width="5" d="M25.49 71.191h31.768" paint-order="fill markers stroke"/>
    <path fill="none" stroke="#89b4fa" stroke-linecap="round" stroke-linejoin="round" stroke-width="5" d="M44.67-84.21A13.009 13.009 0 0 1 57.68-97.22a13.009 13.009 0 0 1 13.008 13.01A13.009 13.009 0 0 1 57.68-71.203" paint-order="fill markers stroke" transform="scale(1 -1)"/>
    <path fill="none" stroke="#89b4fa" stroke-linecap="round" stroke-linejoin="round" stroke-width="5" d="M5.023 71.191H13.1" paint-order="fill markers stroke"/>
</svg>
