<svg xmlns="http://www.w3.org/2000/svg" width="100" height="100" viewBox="-5 -5 110 110">
    <path fill="none" stroke="#40a02b" stroke-linecap="round" stroke-linejoin="round" stroke-width="5" d="M47.81 57.745a14.936 14.817 0 0 1-16.57 7.012 14.936 14.817 0 0 1-11.318-13.904 14.936 14.817 0 0 1 10.4-14.593 14.936 14.817 0 0 1 16.988 5.947m20.969 23.582L55.002 36.273m-5.026 61.236c2.685-.349 3.854-.538 5.347-1.534.916-.775 1.79-2.053 2.202-3.164l23.438-56.538M49.734 97.505A47.506 47.506 0 0 1 3.042 57.193a47.506 47.506 0 0 1 32.485-52.44 47.506 47.506 0 0 1 56.888 23.852 47.506 47.506 0 0 1-14.629 59.927" paint-order="fill markers stroke"/>
</svg>
