<svg xmlns="http://www.w3.org/2000/svg" width="100" height="100" viewBox="0 0 100 100">
    <path fill="none" stroke="#4c4f69" stroke-linecap="round" stroke-linejoin="round" stroke-width="5" d="M44.714 27.878v-2.974c0-7.56-7.295-7.56-7.295-7.56h-26.19c-8.729 0-8.729 9.047-8.729 9.047v48.21c0 7.436 7.773 8.056 7.773 8.056H40m54.627-37.656 1.939-7.332c1.833-8.827-7.31-9.543-7.31-9.543h-65.23s-4.886 1.207-6.747 5.588c-1.86 4.382-5.75 15.512-5.75 15.512" paint-order="fill markers stroke"/>
    <rect width="32.357" height="32.357" x="59.036" y="61.216" fill="none" stroke="#e64553" stroke-width="5" rx="5.393"/>
    <path fill="none" stroke="#e64553" stroke-width="5" d="M80.608 61.216v-5.393a5.393 5.393 0 0 0-5.393-5.393H53.644a5.393 5.393 0 0 0-5.393 5.393v21.571a5.393 5.393 0 0 0 5.393 5.393h5.392"/>
</svg>
