<svg xmlns="http://www.w3.org/2000/svg" width="100" height="100" viewBox="-5 -5 110 110">
    <path fill="none" stroke="#1e66f5" stroke-linecap="round" stroke-linejoin="round" stroke-width="5" d="M25.914 28.612a32.22 32.22 0 0 1 24.08-10.833 32.22 32.22 0 0 1 24.092 10.805" paint-order="fill markers stroke"/>
    <path fill="none" stroke="#1e66f5" stroke-linecap="round" stroke-linejoin="round" stroke-width="5" d="M50 17.271V2.903M30.603 24.006 23.42 11.562M70.833 24.006l7.185-12.444" paint-order="fill markers stroke"/>
    <path fill="none" stroke="#1e66f5" stroke-linecap="round" stroke-linejoin="round" stroke-width="5" d="M25.914-72.134a32.22 32.22 0 0 1 24.08-10.833 32.22 32.22 0 0 1 24.092 10.805" paint-order="fill markers stroke" transform="scale(1 -1)"/>
    <path fill="none" stroke="#1e66f5" stroke-linecap="round" stroke-linejoin="round" stroke-width="5" d="M50 83.475v14.368M30.603 76.74 23.42 89.184M70.833 76.74l7.185 12.444" paint-order="fill markers stroke"/>
    <path fill="none" stroke="#1e66f5" stroke-linecap="round" stroke-linejoin="round" stroke-width="5" d="M9.58 41.8v16.545M22.061 41.8v16.545M34.253 41.8v16.545M53.774 41.8v16.545M73.295 41.8v16.545M90.42 41.8v16.545M10.232 50.073h11.176M35.922 50.073h5.442M34.652 41.8h7.638M34.652 58.332h7.638M53.997 58.332h7.638M73.476 41.988 81.82 50.8M90.27 41.988 81.82 50.8" paint-order="fill markers stroke"/>
</svg>
