<svg xmlns="http://www.w3.org/2000/svg" width="100" height="100" viewBox="-5 -5 110 110">
    <path fill="none" stroke="#8839ef" stroke-width="1.4832" d="m21.875 6.405 7.257-1.31a.714.714 0 0 1 .752 1.05v.001l-13.142 23.5a.714.714 0 0 1-1.244.005L2.096 6.148a.714.714 0 0 1 .746-1.057l9.08 1.619" transform="matrix(3.3711 0 0 3.3711 -3.899 -3.917)"/>
    <path fill="none" stroke="#df8e1d" stroke-width="1.4832" d="M22.264 2.007 12.54 3.912a.357.357 0 0 0-.288.33l-.598 10.104a.357.357 0 0 0 .437.369l2.707-.625a.357.357 0 0 1 .43.42l-.804 3.939a.357.357 0 0 0 .454.413l1.672-.508a.357.357 0 0 1 .454.414l-1.279 6.187c-.08.387.435.598.65.267l.143-.222 7.925-15.815a.357.357 0 0 0-.387-.51l-2.787.537a.357.357 0 0 1-.41-.45l1.818-6.306a.357.357 0 0 0-.412-.45z" transform="matrix(3.3711 0 0 3.3711 -3.899 -3.917)"/>
</svg>
