<svg xmlns="http://www.w3.org/2000/svg" width="100" height="100" viewBox="-5 -5 110 110">
    <path fill="none" stroke="#a6d189" stroke-linecap="round" stroke-linejoin="round" stroke-width="5" d="M63.359 72.642a26.29 26.29 0 0 1-26.589.075 26.29 26.29 0 0 1-13.055-23.163A26.29 26.29 0 0 1 37.55 26.847"/>
    <path fill="none" stroke="#8caaee" stroke-linecap="round" stroke-linejoin="round" stroke-width="5" d="M37.406 26.925A26.29 26.29 0 0 1 72.7 36.743a26.29 26.29 0 0 1-8.792 35.564"/>
    <path fill="none" stroke="#a6d189" stroke-linecap="round" stroke-linejoin="round" stroke-width="5" d="M94.832 64.718a47.186 47.186 0 0 1-59.387 30.167A47.186 47.186 0 0 1 5.062 35.61"/>
    <path fill="none" stroke="#8caaee" stroke-linecap="round" stroke-linejoin="round" stroke-width="5" d="M5.477 34.368A47.186 47.186 0 0 1 64.701 5.162a47.186 47.186 0 0 1 30.433 58.601"/>
    <path fill="none" stroke="#c6d0f5" stroke-linecap="round" stroke-linejoin="round" stroke-width="5" d="M48.961 48.297S37.914 65.4 39.111 73.92"/>
    <path fill="none" stroke="#c6d0f5" stroke-linecap="round" stroke-linejoin="round" stroke-width="5" d="M5.37 34.785c3.372-7.793 13.508-10.707 22.03-10.872 23.981-.465 19.037 41.202 37.716 49.117 8.805 3.73 25.095-.449 29.78-8.477"/>
</svg>
