<svg xmlns="http://www.w3.org/2000/svg" width="100" height="100" viewBox="0 0 100 100">
    <path fill="none" stroke="#c6d0f5" stroke-linecap="round" stroke-linejoin="round" stroke-width="5" d="M24.023 28.126H78.31s9.207.248 9.207 9.543V45M40 82.656H10.272S2.5 82.036 2.5 74.601V26.39s0-9.047 8.729-9.047h26.186s7.294 0 7.294 7.56v2.974" paint-order="fill markers stroke"/>
    <path fill="none" stroke="#ca9ee6" stroke-linecap="round" stroke-linejoin="round" stroke-width="5" d="M82.646 92.8h-25.84a7.048 7.048 0 0 1 0-14.094h25.841a7.048 7.048 0 0 0 0 14.095h2.35a7.048 7.048 0 0 0 7.046-7.047V59.912a4.698 4.698 0 0 0-4.698-4.697H63.854a4.698 4.698 0 0 0-4.7 4.697v18.794"/>
</svg>
