<svg xmlns="http://www.w3.org/2000/svg" width="100" height="100" viewBox="0 0 100 100">
    <path fill="none" stroke="#c6d0f5" stroke-linecap="round" stroke-linejoin="round" stroke-width="5" d="M24.023 28.126H78.31s9.207.248 9.207 9.543V45M40 82.656H10.272S2.5 82.036 2.5 74.601V26.39s0-9.047 8.729-9.047h26.186s7.294 0 7.294 7.56v2.974" paint-order="fill markers stroke"/>
    <path fill="none" stroke="#a6d189" stroke-linecap="round" stroke-linejoin="round" stroke-width="4.78278" d="M66.497 69.677c-2.35 4.07-7.138 6.096-11.726 4.962-4.587-1.133-7.858-5.151-8.01-9.84-.15-4.687 2.854-8.904 7.36-10.326 4.505-1.423 9.414.296 12.021 4.208m14.84 16.689-9.396-20.888m1.786 40.01 16.585-40.01" paint-order="fill markers stroke"/>
</svg>
