<svg xmlns="http://www.w3.org/2000/svg" width="100" height="100" viewBox="0 0 100 100">
    <path fill="none" stroke="#c6d0f5" stroke-linecap="round" stroke-linejoin="round" stroke-width="5" d="M24.023 28.126H78.31s9.207.248 9.207 9.543V45M40 82.656H10.272S2.5 82.036 2.5 74.601V26.39s0-9.047 8.729-9.047h26.186s7.294 0 7.294 7.56v2.974" paint-order="fill markers stroke"/>
    <path fill="none" stroke="#8caaee" stroke-linecap="round" stroke-linejoin="round" stroke-width="5" d="m50.523 64.268 29.785 29.037s1.053.79 2.016.087l8.447-4.084c1.15-.794.988-1.775.988-1.775V60.812c0-1.173-1.188-1.58-1.188-1.58l-7.788-3.794c-1.7-1.063-2.814.192-2.814.192l-2.48 2.24-26.892 25.424"/>
</svg>
