<svg xmlns="http://www.w3.org/2000/svg" width="100" height="100" viewBox="0 0 100 100">
    <path fill="none" stroke="#c6d0f5" stroke-linecap="round" stroke-linejoin="round" stroke-width="5" d="M44.714 27.878v-2.974c0-7.56-7.295-7.56-7.295-7.56h-26.19c-8.729 0-8.729 9.047-8.729 9.047v48.21c0 7.436 7.773 8.056 7.773 8.056H40m54.627-37.656 1.939-7.332c1.833-8.827-7.31-9.543-7.31-9.543h-65.23s-4.886 1.207-6.747 5.588c-1.86 4.382-5.75 15.512-5.75 15.512" paint-order="fill markers stroke"/>
    <path fill="none" stroke="#8caaee" stroke-linecap="round" stroke-linejoin="round" stroke-width="5" d="m50.523 64.268 29.785 29.037s1.053.79 2.016.087l8.447-4.084c1.15-.794.988-1.775.988-1.775V60.812c0-1.173-1.188-1.58-1.188-1.58l-7.788-3.794c-1.7-1.063-2.814.192-2.814.192l-2.48 2.24-26.892 25.424"/>
</svg>
