<svg xmlns="http://www.w3.org/2000/svg" width="100" height="100" viewBox="0 0 100 100">
    <path fill="none" stroke="#c6d0f5" stroke-linecap="round" stroke-linejoin="round" stroke-width="5" d="M44.714 27.878v-2.974c0-7.56-7.295-7.56-7.295-7.56h-26.19c-8.729 0-8.729 9.047-8.729 9.047v48.21c0 7.436 7.773 8.056 7.773 8.056H40m54.627-37.656 1.939-7.332c1.833-8.827-7.31-9.543-7.31-9.543h-65.23s-4.886 1.207-6.747 5.588c-1.86 4.382-5.75 15.512-5.75 15.512" paint-order="fill markers stroke"/>
    <path fill="none" stroke="#8caaee" stroke-linecap="round" stroke-linejoin="round" stroke-width="5" d="M58.198 81.9h28.627M58.741 93.961h28.767V53.98h-31.18c-.903 0-1.932.219-2.747.695-.332.194-.566.525-.794.833-.314.426-.613.883-.774 1.386-.235.73-.257 1.47-.257 2.283V87.15m6.52 6.82a6.535 6.036 0 0 1-5.659-3.017 6.535 6.036 0 0 1 0-6.037 6.535 6.036 0 0 1 5.66-3.018" paint-order="fill markers stroke"/>
</svg>
