<svg xmlns="http://www.w3.org/2000/svg" width="100" height="100" viewBox="0 0 100 100">
    <path fill="none" stroke="#c6d0f5" stroke-linecap="round" stroke-linejoin="round" stroke-width="5" d="M24.023 28.126H78.31s9.207.248 9.207 9.543V45M40 82.656H10.272S2.5 82.036 2.5 74.601V26.39s0-9.047 8.729-9.047h26.186s7.294 0 7.294 7.56v2.974" paint-order="fill markers stroke"/>
    <path fill="none" stroke="#8caaee" stroke-linecap="round" stroke-linejoin="round" stroke-width="5" d="M49.755 92.237v-8.323a8.323 8.323 0 1 1 8.323 8.323h-8.323"/>
    <path fill="none" stroke="#8caaee" stroke-linecap="round" stroke-linejoin="round" stroke-width="5" d="M87.207 54.784a33.291 33.291 0 0 0-26.633 21.223m26.633-21.223a33.291 33.291 0 0 1-21.223 26.633"/>
    <path fill="none" stroke="#8caaee" stroke-linecap="round" stroke-linejoin="round" stroke-width="5" d="M65.568 67.268a18.726 18.726 0 0 1 9.155 9.155"/>
</svg>
