<svg xmlns="http://www.w3.org/2000/svg" width="100" height="100" viewBox="0 0 100 100">
    <path fill="none" stroke="#c6d0f5" stroke-linecap="round" stroke-linejoin="round" stroke-width="5" d="M24.023 28.126H78.31s9.207.248 9.207 9.543V45M40 82.656H10.272S2.5 82.036 2.5 74.601V26.39s0-9.047 8.729-9.047h26.186s7.294 0 7.294 7.56v2.974" paint-order="fill markers stroke"/>
    <path fill="none" stroke="#81c8be" stroke-linecap="round" stroke-linejoin="round" stroke-width="5" d="m54.45 92.21-7.743-24.658c-.237-.756.278-1.592 1.15-1.866l34.462-10.82c.527-.166 1.094-.094 1.509.195l13.357 9.35c.499.349.687.949.477 1.52l-5.614 15.307c-.174.474-.597.858-1.126 1.024L56.46 93.082c-.873.275-1.774-.116-2.011-.873z"/>
    <circle cx="97.333" cy="46.247" r="6.147" fill="none" stroke="#81c8be" stroke-linecap="round" stroke-linejoin="round" stroke-width="5" paint-order="fill markers stroke" transform="rotate(15)"/>
</svg>
