<svg xmlns="http://www.w3.org/2000/svg" width="100" height="100" viewBox="0 0 100 100">
    <path fill="none" stroke="#c6d0f5" stroke-linecap="round" stroke-linejoin="round" stroke-width="5" d="M24.023 28.126H78.31s9.207.248 9.207 9.543V45M40 82.656H10.272S2.5 82.036 2.5 74.601V26.39s0-9.047 8.729-9.047h26.186s7.294 0 7.294 7.56v2.974" paint-order="fill markers stroke"/>
    <path fill="none" stroke="#a6d189" stroke-linecap="round" stroke-linejoin="round" stroke-width="5" d="m75.519 94.44-7.404-12.828a18.187 18.187 0 0 1-18.084-8.941 18.196 18.196 0 0 1 1.299-20.132l7.696 13.326 12.113-6.996-7.694-13.325c16.027-2.067 26.588 16.231 16.782 29.075l7.408 12.825"/>
</svg>
