<svg xmlns="http://www.w3.org/2000/svg" width="100" height="100" viewBox="-5 -5 110 110">
    <path fill="none" stroke="#838ba7" stroke-width="5" d="M55.526 76.253c0-11.506 9.327-20.834 20.834-20.834 11.506 0 20.833 9.328 20.833 20.834S87.866 97.087 76.36 97.087c-11.507 0-20.834-9.328-20.834-20.834z"/>
    <path fill="none" stroke="#c6d0f5" stroke-width="5" d="M55.53 23.743c.003-11.506 9.332-20.832 20.838-20.83 11.506.002 20.832 9.332 20.83 20.838V42.5c0 1.15-.932 2.084-2.083 2.084H57.614a2.083 2.083 0 0 1-2.083-2.084zM44.47 76.223c.003 11.509-9.326 20.84-20.834 20.84-11.51 0-20.838-9.331-20.834-20.84V57.468c0-1.15.932-2.083 2.083-2.083h37.501c1.15 0 2.083.933 2.083 2.083z"/>
</svg>
