<svg xmlns="http://www.w3.org/2000/svg" width="100" height="100" viewBox="-5 -5 110 110">
    <path fill="none" stroke="#ca9ee6" stroke-linecap="round" stroke-linejoin="round" stroke-width="5" d="m22.085 52.665 7.52 30.691 8.74-30.488 8.13 30.488 8.333-30.69"/>
    <path fill="none" stroke="#ca9ee6" stroke-linecap="round" stroke-linejoin="round" stroke-width="5" d="m60.906 83.762 9.96-30.894 12.6 30.285"/>
    <path fill="none" stroke="#ca9ee6" stroke-linecap="round" stroke-linejoin="round" stroke-width="5" d="M64.361 74.82h15.04"/>
    <path fill="none" stroke="#ca9ee6" stroke-linecap="round" stroke-linejoin="round" stroke-width="4.988" d="M65.628 2.5H77.5c11.08 0 20 8.92 20 20v55c0 11.08-8.92 20-20 20h-55c-11.08 0-20-8.92-20-20v-55c0-11.08 8.92-20 20-20h12.398"/>
    <path fill="none" stroke="#ca9ee6" stroke-linecap="round" stroke-linejoin="round" stroke-width="7.02276" d="M65.338 3.511c0 8.473-6.868 15.338-15.338 15.338-8.472 0-15.338-6.867-15.338-15.338"/>
</svg>
